<svg xmlns="http://www.w3.org/2000/svg" version="1.1" xmlns:xlink="http://www.w3.org/1999/xlink" xmlns:svgjs="http://svgjs.dev/svgjs" width="1000" height="823" viewBox="0 0 1000 823"><g transform="matrix(1,0,0,1,0.6238534465984458,0.3338136712930009)"><svg viewBox="0 0 300 247" data-background-color="#ffffff" preserveAspectRatio="xMidYMid meet" height="823" width="1000" xmlns="http://www.w3.org/2000/svg" xmlns:xlink="http://www.w3.org/1999/xlink"><g id="tight-bounds" transform="matrix(1,0,0,1,-0.18715603397953373,-0.09997365579206985)"><svg viewBox="0 0 300.374134949495 247.2" height="247.2" width="300.374134949495"><g><svg viewBox="0 0 300.374134949495 247.2" height="247.2" width="300.374134949495"><g><svg viewBox="0 0 300.374134949495 247.2" height="247.2" width="300.374134949495"><g id="textblocktransform"><svg viewBox="0 0 300.374134949495 247.2" height="247.2" width="300.374134949495" id="textblock"><g><svg viewBox="0 0 300.374134949495 247.2" height="247.2" width="300.374134949495"><path d="M299.671 53.02C298.259 27.36 294.234 20.227 294.234 20.227 281.878-6.202 266.458-0.506 252.605 3.292 228.147 3.446 203.788 9.091 179.386 12.119 128.169 12.581 76.513 4.986 25.55 23.717 20.762 29.464-4.966 24.846 0.852 56.304 2.377 69.39 7.94 83.913 7.771 95.922 8.533 98.026 9.593 93.202 10.044 96.23 11.626 104.39 14.21 100.541 16.328 105.365 13.377 118.246 15.495 128.971 17.515 140.21 13.956 143.135 9.395 141.749 7.347 151.449 7.135 158.479 5.992 157.145 4.735 156.837 3.817 156.632 1.967 157.402 2.278 159.608 3.337 167.152-1.21 171.514 1.642 178.904-0.321 186.91 2.998 193.838 2.546 202.511 2.49 204.255 2.8 205.744 3.294 206.154 5.483 208.361 2.292 212.672 2.631 217.342 25.084 249.262 49.443 227.195 72.446 241.872 78.419 231.608 73.929 245.516 76.315 243.36 78.179 240.846 79.535 251.263 81.639 245.362 81.964 243.668 81.47 239.665 82.628 240.435 83.235 240.846 83.771 240.743 83.856 238.382 83.983 234.841 82.868 237.048 82.571 235.201 85.777 225.861 84.986 248.081 87.994 247.158 87.852 244.438 86.977 240.538 88.77 241.051 90.55 237.151 90.606 233.918 92.188 242.693 92.244 244.592 92.527 245.926 92.978 246.85 97.921 237.305 102.835 250.237 108.018 245.926 111.195 241.205 114.245 248.492 117.465 246.696 118.594 245.259 119.738 242.693 120.825 247.004 134.142 247.928 148.334 244.079 160.958 247.158 194.694 241.41 230.745 249.518 266.317 241.923 274.705 238.998 283.417 234.841 291.594 231.506 291.594 231.506 298.216 222.371 298.216 181.316S299.629 145.393 299.84 112.703C300.052 80.013 301.041 78.679 299.629 53.02Z" opacity="1" fill="#124948" data-fill-palette-color="tertiary"></path><g transform="matrix(1,0,0,1,55.76832000000002,26.230666666666668)"><svg width="188.83749494949495" viewBox="3.25 -33 32 33" height="194.73866666666666" data-palette-color="#ffffff"><path d="M17.55 0L3.25 0 3.25-0.8 7.25-2.8 7.25-30.2 3.25-32.2 3.25-33 17.9-33Q23.4-33 27.3-31.05 31.2-29.1 33.23-25.7 35.25-22.3 35.25-18L35.25-18Q35.25-14.1 33.93-10.8 32.6-7.5 30.2-5.1 27.8-2.7 24.58-1.35 21.35 0 17.55 0L17.55 0ZM16.75-30.25L16.75-30.25 11.75-30.25 11.75-2.75 17.5-2.75Q21.5-2.75 24.43-4.42 27.35-6.1 28.93-9.18 30.5-12.25 30.5-16.45L30.5-16.45Q30.5-20.6 28.9-23.73 27.3-26.85 24.23-28.55 21.15-30.25 16.75-30.25Z" opacity="1" transform="matrix(1,0,0,1,0,0)" fill="#ffffff" class="wordmark-text-0" data-fill-palette-color="quaternary" id="text-0"></path></svg></g></svg></g></svg></g></svg></g><g></g></svg></g><defs></defs></svg><rect width="300.374134949495" height="247.2" fill="none" stroke="none" visibility="hidden"></rect></g></svg></g></svg>